<svg width="48" height="48" viewBox="0 0 48 48" fill="none" xmlns="http://www.w3.org/2000/svg">
<path d="M44.5 24C44.5 35.3284 35.3284 44.5 24 44.5C12.6716 44.5 3.5 35.3284 3.5 24C3.5 12.6716 12.6716 3.5 24 3.5C35.3284 3.5 44.5 12.6716 44.5 24Z" fill="#FFF"/>
<path d="M48 24C48 37.2548 37.2548 48 24 48C10.7452 48 0 37.2548 0 24C0 10.7452 10.7452 0 24 0C37.2548 0 48 10.7452 48 24Z" fill="url(#paint0_linear_101_8)"/>
<path d="M24 48C37.2548 48 48 37.2548 48 24C48 10.7452 37.2548 0 24 0C10.7452 0 0 10.7452 0 24C0 37.2548 10.7452 48 24 48Z" fill="url(#paint1_linear_101_8)"/>
<path d="M48 24C48 37.2548 37.2548 48 24 48C10.7452 48 0 37.2548 0 24C0 10.7452 10.7452 0 24 0C37.2548 0 48 10.7452 48 24Z" fill="url(#paint2_linear_101_8)"/>
<path d="M48 24C48 37.2548 37.2548 48 24 48C10.7452 48 0 37.2548 0 24C0 10.7452 10.7452 0 24 0C37.2548 0 48 10.7452 48 24Z" fill="url(#paint3_linear_101_8)"/>
<path fill-rule="evenodd" clip-rule="evenodd" d="M24 48C37.2548 48 48 37.2548 48 24C48 10.7452 37.2548 0 24 0C10.7452 0 0 10.7452 0 24C0 37.2548 10.7452 48 24 48ZM10.53 24C10.53 16.5523 16.5523 10.53 24 10.53C31.4477 10.53 37.47 16.5523 37.47 24C37.47 31.4477 31.4477 37.47 24 37.47C16.5523 37.47 10.53 31.4477 10.53 24Z" fill="url(#paint4_linear_101_8)"/>
<path fill-rule="evenodd" clip-rule="evenodd" d="M24 48C37.2548 48 48 37.2548 48 24C48 10.7452 37.2548 0 24 0C10.7452 0 0 10.7452 0 24C0 37.2548 10.7452 48 24 48ZM10.53 24C10.53 16.5523 16.5523 10.53 24 10.53C31.4477 10.53 37.47 16.5523 37.47 24C37.47 31.4477 31.4477 37.47 24 37.47C16.5523 37.47 10.53 31.4477 10.53 24Z" fill="url(#paint5_linear_101_8)"/>
<path d="M38.18 24.46C38.18 25.56 38.03 26.6 37.76 27.58L31.82 24.46L38.18 24.46Z" fill="#4285F4"/>
<path d="M24.46 38.18C21.3 38.18 18.49 37.22 16.3 35.68L21.1 30.13C22.06 30.68 23.23 31 24.46 31C28.25 31 31.35 28.21 31.82 24.46H38.18C36.88 32.18 31.28 38.18 24.46 38.18Z" fill="#34A853"/>
<path d="M16.3 35.68L9.82001 35.68C11.12 43.4 16.72 49.4 23.54 50.72L23.54 38.18C23.54 38.18 16.3 35.68 16.3 35.68Z" fill="#FBBC05"/>
<path d="M9.82001 24.46C9.82001 23.36 9.97001 22.32 10.24 21.34L4.30001 24.46L9.82001 24.46Z" fill="#EA4335"/>
<path d="M16.3 13.24L21.1 18.79C19.04 17.25 16.23 16.29 13.07 16.29C9.28 16.29 6.18 19.08 5.71 22.83H-0.65C0.65 15.11 6.25 9.11 13.07 9.11C16.23 9.11 19.04 10.07 21.23 11.61L16.3 13.24Z" fill="#EA4335"/>
<defs>
<linearGradient id="paint0_linear_101_8" x1="24" y1="0" x2="24" y2="48" gradientUnits="userSpaceOnUse">
<stop stop-color="#4285F4"/>
<stop offset="1" stop-color="#34A853"/>
</linearGradient>
<linearGradient id="paint1_linear_101_8" x1="24" y1="0" x2="24" y2="48" gradientUnits="userSpaceOnUse">
<stop stop-color="#FBBC05"/>
<stop offset="1" stop-color="#EA4335"/>
</linearGradient>
<linearGradient id="paint2_linear_101_8" x1="24" y1="0" x2="24" y2="48" gradientUnits="userSpaceOnUse">
<stop stop-color="#4285F4"/>
<stop offset="1" stop-color="#EA4335"/>
</linearGradient>
<linearGradient id="paint3_linear_101_8" x1="24" y1="0" x2="24" y2="48" gradientUnits="userSpaceOnUse">
<stop stop-color="#34A853"/>
<stop offset="1" stop-color="#FBBC05"/>
</linearGradient>
<linearGradient id="paint4_linear_101_8" x1="24" y1="0" x2="24" y2="48" gradientUnits="userSpaceOnUse">
<stop stop-color="#4285F4"/>
<stop offset="1" stop-color="#34A853"/>
</linearGradient>
<linearGradient id="paint5_linear_101_8" x1="24" y1="0" x2="24" y2="48" gradientUnits="userSpaceOnUse">
<stop stop-color="#FBBC05"/>
<stop offset="1" stop-color="#EA4335"/>
</linearGradient>
</defs>
</svg>
